<?xml version="1.0" encoding="utf-8"?>
<!-- Generator: Adobe Illustrator 25.2.0, SVG Export Plug-In . SVG Version: 6.00 Build 0)  -->
<svg version="1.1" id="Layer_1" xmlns="http://www.w3.org/2000/svg" xmlns:xlink="http://www.w3.org/1999/xlink" x="0px" y="0px"
	 viewBox="0 0 1920 1080" style="enable-background:new 0 0 1920 1080;" xml:space="preserve">
<style type="text/css">
	.st0{display:none;}
	.st1{display:inline;fill:#727272;}
	.st2{fill:#B2B1B8;}
</style>
<g class="st0">
	<rect class="st1" width="1920" height="1080"/>
</g>
<g id="Layer_2">
	<g>
		<path class="st2" d="M79.01,144.13l-7.33-6.32c-3.2-2.76-3.56-7.6-0.8-10.8l6.32-7.33c2.76-3.2,7.6-3.56,10.8-0.8l7.33,6.32
			c3.2,2.76,3.56,7.6,0.8,10.8l-6.32,7.33C87.05,146.53,82.21,146.89,79.01,144.13z"/>
	</g>
	<g>
		<path class="st2" d="M1823.51,706.63l-7.33-6.32c-3.2-2.76-3.56-7.6-0.8-10.8l6.32-7.33c2.76-3.2,7.6-3.56,10.8-0.8l7.33,6.32
			c3.2,2.76,3.56,7.6,0.8,10.8l-6.32,7.33C1831.55,709.03,1826.71,709.39,1823.51,706.63z"/>
	</g>
	<g>
		<path class="st2" d="M1823.51,471.63l-7.33-6.32c-3.2-2.76-3.56-7.6-0.8-10.8l6.32-7.33c2.76-3.2,7.6-3.56,10.8-0.8l7.33,6.32
			c3.2,2.76,3.56,7.6,0.8,10.8l-6.32,7.33C1831.55,474.03,1826.71,474.39,1823.51,471.63z"/>
	</g>
	<g>
		<path class="st2" d="M1823.51,321.63l-7.33-6.32c-3.2-2.76-3.56-7.6-0.8-10.8l6.32-7.33c2.76-3.2,7.6-3.56,10.8-0.8l7.33,6.32
			c3.2,2.76,3.56,7.6,0.8,10.8l-6.32,7.33C1831.55,324.03,1826.71,324.39,1823.51,321.63z"/>
	</g>
	<g>
		<path class="st2" d="M1823.51,89.63l-7.33-6.32c-3.2-2.76-3.56-7.6-0.8-10.8l6.32-7.33c2.76-3.2,7.6-3.56,10.8-0.8l7.33,6.32
			c3.2,2.76,3.56,7.6,0.8,10.8l-6.32,7.33C1831.55,92.03,1826.71,92.39,1823.51,89.63z"/>
	</g>
	<g>
		<path class="st2" d="M82.51,789.63l-7.33-6.32c-3.2-2.76-3.56-7.6-0.8-10.8l6.32-7.33c2.76-3.2,7.6-3.56,10.8-0.8l7.33,6.32
			c3.2,2.76,3.56,7.6,0.8,10.8l-6.32,7.33C90.55,792.03,85.71,792.39,82.51,789.63z"/>
	</g>
	<g>
		<path class="st2" d="M78.51,552.63l-7.33-6.32c-3.2-2.76-3.56-7.6-0.8-10.8l6.32-7.33c2.76-3.2,7.6-3.56,10.8-0.8l7.33,6.32
			c3.2,2.76,3.56,7.6,0.8,10.8l-6.32,7.33C86.55,555.03,81.71,555.39,78.51,552.63z"/>
	</g>
	<g>
		<path class="st2" d="M78.51,270.63l-7.33-6.32c-3.2-2.76-3.56-7.6-0.8-10.8l6.32-7.33c2.76-3.2,7.6-3.56,10.8-0.8l7.33,6.32
			c3.2,2.76,3.56,7.6,0.8,10.8l-6.32,7.33C86.55,273.03,81.71,273.39,78.51,270.63z"/>
	</g>
	<g>
		<path class="st2" d="M83,181L83,181c-2.21,0-4-1.79-4-4l0,0c0-2.21,1.79-4,4-4h0c2.21,0,4,1.79,4,4l0,0
			C87,179.21,85.21,181,83,181z"/>
	</g>
	<g>
		<path class="st2" d="M1829,798L1829,798c-2.21,0-4-1.79-4-4l0,0c0-2.21,1.79-4,4-4l0,0c2.21,0,4,1.79,4,4l0,0
			C1833,796.21,1831.21,798,1829,798z"/>
	</g>
	<g>
		<path class="st2" d="M1828,843L1828,843c-2.21,0-4-1.79-4-4l0,0c0-2.21,1.79-4,4-4l0,0c2.21,0,4,1.79,4,4l0,0
			C1832,841.21,1830.21,843,1828,843z"/>
	</g>
	<g>
		<path class="st2" d="M1829,753L1829,753c-2.21,0-4-1.79-4-4l0,0c0-2.21,1.79-4,4-4l0,0c2.21,0,4,1.79,4,4l0,0
			C1833,751.21,1831.21,753,1829,753z"/>
	</g>
	<g>
		<path class="st2" d="M1828,582L1828,582c-2.21,0-4-1.79-4-4l0,0c0-2.21,1.79-4,4-4l0,0c2.21,0,4,1.79,4,4l0,0
			C1832,580.21,1830.21,582,1828,582z"/>
	</g>
	<g>
		<path class="st2" d="M1829,634L1829,634c-2.21,0-4-1.79-4-4l0,0c0-2.21,1.79-4,4-4l0,0c2.21,0,4,1.79,4,4l0,0
			C1833,632.21,1831.21,634,1829,634z"/>
	</g>
	<g>
		<path class="st2" d="M1828,523L1828,523c-2.21,0-4-1.79-4-4l0,0c0-2.21,1.79-4,4-4l0,0c2.21,0,4,1.79,4,4l0,0
			C1832,521.21,1830.21,523,1828,523z"/>
	</g>
	<g>
		<path class="st2" d="M1828,358L1828,358c-2.21,0-4-1.79-4-4l0,0c0-2.21,1.79-4,4-4l0,0c2.21,0,4,1.79,4,4l0,0
			C1832,356.21,1830.21,358,1828,358z"/>
	</g>
	<g>
		<path class="st2" d="M1828,260L1828,260c-2.21,0-4-1.79-4-4l0,0c0-2.21,1.79-4,4-4l0,0c2.21,0,4,1.79,4,4l0,0
			C1832,258.21,1830.21,260,1828,260z"/>
	</g>
	<g>
		<path class="st2" d="M1828,188L1828,188c-2.21,0-4-1.79-4-4l0,0c0-2.21,1.79-4,4-4l0,0c2.21,0,4,1.79,4,4l0,0
			C1832,186.21,1830.21,188,1828,188z"/>
	</g>
	<g>
		<path class="st2" d="M1828,127L1828,127c-2.21,0-4-1.79-4-4v0c0-2.21,1.79-4,4-4l0,0c2.21,0,4,1.79,4,4v0
			C1832,125.21,1830.21,127,1828,127z"/>
	</g>
	<g>
		<path class="st2" d="M87,976L87,976c-2.21,0-4-1.79-4-4l0,0c0-2.21,1.79-4,4-4h0c2.21,0,4,1.79,4,4l0,0
			C91,974.21,89.21,976,87,976z"/>
	</g>
	<g>
		<path class="st2" d="M87,929L87,929c-2.21,0-4-1.79-4-4l0,0c0-2.21,1.79-4,4-4h0c2.21,0,4,1.79,4,4l0,0
			C91,927.21,89.21,929,87,929z"/>
	</g>
	<g>
		<path class="st2" d="M87,891L87,891c-2.21,0-4-1.79-4-4l0,0c0-2.21,1.79-4,4-4h0c2.21,0,4,1.79,4,4l0,0
			C91,889.21,89.21,891,87,891z"/>
	</g>
	<g>
		<path class="st2" d="M87,853L87,853c-2.21,0-4-1.79-4-4l0,0c0-2.21,1.79-4,4-4h0c2.21,0,4,1.79,4,4l0,0
			C91,851.21,89.21,853,87,853z"/>
	</g>
	<g>
		<path class="st2" d="M87,716L87,716c-2.21,0-4-1.79-4-4l0,0c0-2.21,1.79-4,4-4h0c2.21,0,4,1.79,4,4l0,0
			C91,714.21,89.21,716,87,716z"/>
	</g>
	<g>
		<path class="st2" d="M87,620L87,620c-2.21,0-4-1.79-4-4l0,0c0-2.21,1.79-4,4-4h0c2.21,0,4,1.79,4,4l0,0
			C91,618.21,89.21,620,87,620z"/>
	</g>
	<g>
		<path class="st2" d="M83,407L83,407c-2.21,0-4-1.79-4-4l0,0c0-2.21,1.79-4,4-4h0c2.21,0,4,1.79,4,4l0,0
			C87,405.21,85.21,407,83,407z"/>
	</g>
	<g>
		<path class="st2" d="M83,469L83,469c-2.21,0-4-1.79-4-4l0,0c0-2.21,1.79-4,4-4h0c2.21,0,4,1.79,4,4l0,0
			C87,467.21,85.21,469,83,469z"/>
	</g>
	<g>
		<path class="st2" d="M83,340L83,340c-2.21,0-4-1.79-4-4l0,0c0-2.21,1.79-4,4-4h0c2.21,0,4,1.79,4,4l0,0
			C87,338.21,85.21,340,83,340z"/>
	</g>
	<g>
		<path class="st2" d="M83,71L83,71c-2.21,0-4-1.79-4-4v0c0-2.21,1.79-4,4-4h0c2.21,0,4,1.79,4,4v0C87,69.21,85.21,71,83,71z"/>
	</g>
	<g>
		<path class="st2" d="M83,96L83,96c-2.21,0-4-1.79-4-4v0c0-2.21,1.79-4,4-4h0c2.21,0,4,1.79,4,4v0C87,94.21,85.21,96,83,96z"/>
	</g>
	<g>
		<path class="st2" d="M83,204L83,204c-2.21,0-4-1.79-4-4l0,0c0-2.21,1.79-4,4-4h0c2.21,0,4,1.79,4,4l0,0
			C87,202.21,85.21,204,83,204z"/>
	</g>
	<g>
		<path class="st2" d="M1824.51,916.63l-7.33-6.32c-3.2-2.76-3.56-7.6-0.8-10.8l6.32-7.33c2.76-3.2,7.6-3.56,10.8-0.8l7.33,6.32
			c3.2,2.76,3.56,7.6,0.8,10.8l-6.32,7.33C1832.55,919.03,1827.71,919.39,1824.51,916.63z"/>
	</g>
	<g>
		<path class="st2" d="M1828,412L1828,412c-2.21,0-4-1.79-4-4l0,0c0-2.21,1.79-4,4-4l0,0c2.21,0,4,1.79,4,4l0,0
			C1832,410.21,1830.21,412,1828,412z"/>
	</g>
	<g>
		<path class="st2" d="M1828,1018L1828,1018c-2.21,0-4-1.79-4-4l0,0c0-2.21,1.79-4,4-4l0,0c2.21,0,4,1.79,4,4l0,0
			C1832,1016.21,1830.21,1018,1828,1018z"/>
	</g>
	<g>
		<path class="st2" d="M1828,973L1828,973c-2.21,0-4-1.79-4-4l0,0c0-2.21,1.79-4,4-4l0,0c2.21,0,4,1.79,4,4l0,0
			C1832,971.21,1830.21,973,1828,973z"/>
	</g>
</g>
</svg>
